<svg width="48" height="48" viewBox="0 0 48 48" fill="none" xmlns="http://www.w3.org/2000/svg">
  <defs>
    <linearGradient id="gradient" x1="0%" y1="0%" x2="100%" y2="100%">
      <stop offset="0%" style="stop-color:#9c27b0;stop-opacity:1" />
      <stop offset="50%" style="stop-color:#2196f3;stop-opacity:1" />
      <stop offset="100%" style="stop-color:#00bcd4;stop-opacity:1" />
    </linearGradient>
  </defs>
  
  <!-- Network nodes -->
  <circle cx="12" cy="12" r="3" fill="url(#gradient)"/>
  <circle cx="24" cy="8" r="2.5" fill="url(#gradient)"/>
  <circle cx="36" cy="12" r="3" fill="url(#gradient)"/>
  <circle cx="18" cy="24" r="2" fill="url(#gradient)"/>
  <circle cx="30" cy="20" r="2.5" fill="url(#gradient)"/>
  <circle cx="12" cy="36" r="2.5" fill="url(#gradient)"/>
  <circle cx="24" cy="32" r="2" fill="url(#gradient)"/>
  <circle cx="36" cy="28" r="2.5" fill="url(#gradient)"/>
  <circle cx="24" cy="42" r="3" fill="url(#gradient)"/>
  
  <!-- Connecting lines -->
  <path d="M12 12 L24 8 L36 12" stroke="url(#gradient)" stroke-width="1.5" opacity="0.7"/>
  <path d="M12 12 L18 24" stroke="url(#gradient)" stroke-width="1.5" opacity="0.7"/>
  <path d="M24 8 L30 20" stroke="url(#gradient)" stroke-width="1.5" opacity="0.7"/>
  <path d="M36 12 L30 20" stroke="url(#gradient)" stroke-width="1.5" opacity="0.7"/>
  <path d="M18 24 L12 36" stroke="url(#gradient)" stroke-width="1.5" opacity="0.7"/>
  <path d="M18 24 L24 32" stroke="url(#gradient)" stroke-width="1.5" opacity="0.7"/>
  <path d="M30 20 L36 28" stroke="url(#gradient)" stroke-width="1.5" opacity="0.7"/>
  <path d="M30 20 L24 32" stroke="url(#gradient)" stroke-width="1.5" opacity="0.7"/>
  <path d="M12 36 L24 42" stroke="url(#gradient)" stroke-width="1.5" opacity="0.7"/>
  <path d="M24 32 L36 28" stroke="url(#gradient)" stroke-width="1.5" opacity="0.7"/>
  <path d="M24 32 L24 42" stroke="url(#gradient)" stroke-width="1.5" opacity="0.7"/>
</svg>
